<svg xmlns="http://www.w3.org/2000/svg" width="250" height="250"><g style="display:inline"><circle cx="50.839" cy="50.839" r="50.839" data-name="Ellipse 8" style="display:inline;fill:#dd0031" transform="scale(2.45874)"/></g><path d="M124.373 38.945a86.056 86.056 0 0 0-85.428 86.057 86.056 86.056 0 0 0 17.653 52.215l16.984-18.537a61.469 61.469 0 0 1-10.049-33.678 61.469 61.469 0 0 1 61.051-61.469 61.469 61.469 0 0 1 .418 0 61.469 61.469 0 0 1 29.07 7.309l16.985-18.535a86.056 86.056 0 0 0-46.055-13.362 86.056 86.056 0 0 0-.629 0zm69.428 34.362-17.018 18.572a61.469 61.469 0 0 1 9.688 33.123A61.469 61.469 0 0 1 125 186.47a61.469 61.469 0 0 1-28.483-6.998L79.5 198.043a86.056 86.056 0 0 0 45.502 13.016 86.056 86.056 0 0 0 86.057-86.057A86.056 86.056 0 0 0 193.8 73.307z" style="display:inline;opacity:1;fill:#fff;fill-opacity:1;stroke:none;stroke-width:26.6783;stroke-linecap:round;stroke-linejoin:round;stroke-opacity:1"/><g style="display:inline;fill:#fff"><path d="m60 135 35-40H25ZM190 115l35 40h-70z" style="display:inline;fill:#fff;fill-opacity:1;stroke:none;stroke-width:.299333px;stroke-linecap:butt;stroke-linejoin:miter;stroke-opacity:1" transform="rotate(-47.5 125 125)"/></g></svg>